<?xml version="1.0" encoding="UTF-8" standalone="no"?>
<!-- Created with Inkscape (http://www.inkscape.org/) -->

<svg
   xmlns:dc="http://purl.org/dc/elements/1.1/"
   xmlns:cc="http://creativecommons.org/ns#"
   xmlns:rdf="http://www.w3.org/1999/02/22-rdf-syntax-ns#"
   xmlns:svg="http://www.w3.org/2000/svg"
   xmlns="http://www.w3.org/2000/svg"
   xmlns:xlink="http://www.w3.org/1999/xlink"
   xmlns:sodipodi="http://sodipodi.sourceforge.net/DTD/sodipodi-0.dtd"
   xmlns:inkscape="http://www.inkscape.org/namespaces/inkscape"
   width="1920"
   height="1080"
   viewBox="0 0 508 285.75001"
   version="1.1"
   id="svg8"
   inkscape:version="0.92.3 (2405546, 2018-03-11)"
   sodipodi:docname="ui.svg">
  <defs
     id="defs2">
    <linearGradient
       inkscape:collect="always"
       id="linearGradient857">
      <stop
         style="stop-color:#ffff00;stop-opacity:1"
         offset="0"
         id="stop853" />
      <stop
         id="stop861"
         offset="0.51630437"
         style="stop-color:#ff0000;stop-opacity:1" />
      <stop
         style="stop-color:#800080;stop-opacity:1"
         offset="1"
         id="stop855" />
    </linearGradient>
    <filter
       inkscape:collect="always"
       style="color-interpolation-filters:sRGB"
       id="filter849"
       x="-0.020983148"
       width="1.0419663"
       y="-0.12661011"
       height="1.2532202">
      <feGaussianBlur
         inkscape:collect="always"
         stdDeviation="2.0430559"
         id="feGaussianBlur851" />
    </filter>
    <linearGradient
       inkscape:collect="always"
       xlink:href="#linearGradient857"
       id="linearGradient859"
       x1="19.393763"
       y1="42.676826"
       x2="230.33922"
       y2="53.570389"
       gradientUnits="userSpaceOnUse"
       gradientTransform="matrix(0.70612649,0,0,0.70612649,12.899792,11.407768)" />
  </defs>
  <sodipodi:namedview
     id="base"
     pagecolor="#ffffff"
     bordercolor="#666666"
     borderopacity="1.0"
     inkscape:pageopacity="0.0"
     inkscape:pageshadow="2"
     inkscape:zoom="0.33390587"
     inkscape:cx="353.61165"
     inkscape:cy="243.1287"
     inkscape:document-units="px"
     inkscape:current-layer="layer1"
     showgrid="false"
     units="px"
     inkscape:window-width="1853"
     inkscape:window-height="1025"
     inkscape:window-x="67"
     inkscape:window-y="27"
     inkscape:window-maximized="1" />
  <metadata
     id="metadata5">
    <rdf:RDF>
      <cc:Work
         rdf:about="">
        <dc:format>image/svg+xml</dc:format>
        <dc:type
           rdf:resource="http://purl.org/dc/dcmitype/StillImage" />
        <dc:title></dc:title>
      </cc:Work>
    </rdf:RDF>
  </metadata>
  <g
     inkscape:label="Camada 1"
     inkscape:groupmode="layer"
     id="layer1"
     transform="translate(0,-11.249941)">
    <path
       style="font-style:normal;font-variant:normal;font-weight:normal;font-stretch:normal;font-size:44.48680878px;line-height:1.25;font-family:Vevey;-inkscape-font-specification:Vevey;letter-spacing:0px;word-spacing:0px;fill:#000000;fill-opacity:1;stroke:none;stroke-width:1.11217034;filter:url(#filter849)"
       d="m 33.036342,27.647531 c -2.77175,-0.125009 -5.638542,1.812287 -6.806641,3.894531 -2.885852,-5.394231 -10.370224,-2.869357 -15.130859,-3.457031 -0.01456,12.425132 -0.03429,24.850258 -0.04883,37.275391 8.005374,2.196129 8.223783,-3.394707 7.427734,-10 0.08312,-3.469563 -1.225554,-7.831968 3.320313,-7.132813 2.521131,0.279494 4.375525,-3.376119 5.09375,-3.869141 1.722532,2.533753 3.961671,4.656049 5.822265,7.082032 -6.670789,-1.695761 -8.224704,1.838013 -7.066406,7.914062 0.345333,8.478513 15.660385,8.695742 15.681641,-0.05273 1.000854,-5.741353 -0.98413,-11.265419 -5.355467,-15.109379 -3.478538,-2.519368 -3.819019,-7.307199 -2.740235,-10.945313 2.58483,1.334878 -1.878012,9.014345 3.748047,7.023438 7.245975,-1.861457 3.512603,-5.319199 6.318576,4.738147 1.777877,6.623135 0.548075,13.573892 0.906034,20.351697 8.777346,2.635419 7.818982,-4.464872 7.425781,-11 -0.560426,-7.032035 2.311489,-13.669862 3.542969,-20.496094 6.641619,-0.895525 1.738744,9.753443 3.238281,14 0.670428,5.494937 -1.342623,13.673351 1,17.496094 8.876668,2.734741 6.103104,-6.18075 6.425781,-12 0,-6.498698 0,-12.997396 0,-19.496094 6.769002,-1.013102 1.69193,9.804191 3.24513,13.999988 -0.0073,5.832035 -0.01633,11.664069 -0.02247,17.496106 8.160547,4.521619 7.372162,-9.663773 8.50902,-1.844232 0.959466,3.025869 10.603668,2.81287 11.43434,0.176263 2.239981,-11.424279 1.193891,5.31288 8.005861,1.712891 4.164763,-0.453498 10.714743,1.111198 13.322263,-1.044922 0.40207,-3.735429 -1.18985,-19.063336 1.67064,-8.506111 1.7585,4.892327 2.31087,11.587228 8.88991,9.595954 4.71836,-0.872782 13.95072,2.768428 11.68359,-5.089843 -0.58016,-9.445818 0.34784,-10.123604 3.00715,-0.735999 -0.90308,5.809774 8.25094,8.601515 7.19598,2.421545 2.32965,5.110229 10.77728,5.126365 13.98242,0.900391 1.77737,6.28371 10.48586,1.186719 7.07031,-5.5 -7.63685,3.835245 -7.68664,-8.773044 -4.07031,-9.96875 6.51309,2.46438 5.81523,-11.53559 -1,-7.960937 -1.91935,-1.908873 0.45889,-8.162333 -3.55469,-10.28711 -4.04567,-2.99915 -10.93804,-1.60459 -12.48828,3.503906 1.14271,-8.903571 -9.44081,-3.910356 -5.73437,3.394532 0.98907,11.741547 -2.21292,-0.790806 -4.02382,-5.266197 -1.21004,-5.404136 -8.87999,-1.596773 -13.06798,-2.776772 -7.97029,-2.238525 -4.41927,7.044272 -5.15234,12.042969 -0.32211,3.785608 -3.5305,-9.162454 -4.99805,-12 -4.29786,1.049252 -13.732793,-3.108413 -12.093753,3.957031 0,6.435547 0,12.871094 0,19.306641 -0.9639,-7.768917 -1.93024,-15.537532 -2.89258,-23.306641 -7.876956,-2.304004 -8.863114,3.088762 -8.73035,9.730667 C 85.251919,44.810424 84.47714,51.805149 83.702361,58.799875 82.860456,55.166152 80.799173,50.941748 80.680877,47.68464 86.409375,45.127488 84.584646,37.536729 84.175018,32.545968 81.600168,25.737541 72.393776,28.643971 67.065643,28.128 c -5.445964,0 -10.891927,0 -16.337891,0 -1.963618,10.321266 -1.612035,5.773199 -4.716797,0 -4.00035,-1.581122 -7.011338,0.929166 -6.652344,1.363281 -1.691923,-1.549259 -4.111119,-1.906509 -6.322265,-1.84375 z m 203.144528,0 c -3.19577,-0.389329 -6.423,2.799434 -7.24023,4.689453 -2.49155,-6.05529 -10.46489,-3.946406 -15.42969,-4.251953 -0.0453,2.415435 0.53752,5.054616 -1.11914,2.160156 -3.6384,-3.556308 -9.25198,-1.693603 -13.73047,-2.160156 -0.009,7.817059 -0.0211,15.634114 -0.0312,23.451172 -0.96978,-7.817091 -1.94188,-15.633894 -2.91016,-23.451172 -7.87656,-2.304331 -8.86035,3.090396 -8.72868,9.730636 -2.01364,4.629549 1.85721,15.831604 -5.44124,14.558427 -5.98826,-1.993928 -1.76281,5.902459 -3.9668,7.875 -1.35966,-5.29853 0.0226,-12.299917 -0.46289,-18.132813 0.84801,-2.307977 -1.49659,-7.932846 0.91211,-8.775391 -1.16072,6.247844 1.4705,8.145059 7.51758,6.972657 1.08172,-5.025344 -0.4398,-12.232844 -6.67773,-12.554688 -5.31259,-1.127406 -10.22012,3.736188 -9.15039,9.070313 0.64628,8.307605 -1.18112,16.987937 0.86523,25.091796 2.41068,5.240228 10.69273,4.742309 13.5918,1.263672 2.03185,7.264228 6.75766,-2.326395 8.27343,-3.917968 -1.31201,6.950424 4.0614,6.557595 9.16211,6.09375 7.95908,0.298951 2.04961,-8.844523 7.02539,0 6.24905,-0.334673 17.59514,2.556553 20.37696,-4.697266 1.90749,7.598989 15.96773,6.610701 15.48242,-1.810547 0.97308,-5.615809 -1.19627,-10.900396 -5.38086,-14.660156 -3.48802,-2.530873 -3.80558,-7.290649 -2.74023,-10.945313 2.58575,1.329953 -1.87925,9.016844 3.74804,7.023438 5.4704,1.719052 4.60675,-3.411681 4.23438,-7.253906 -0.50822,-3.915523 -4.59373,-5.686261 -8.17969,-5.369141 z m -86.00977,5.644531 c 1.50288,2.317473 -1.78109,8.623366 3.37305,7.021485 9.58414,0.0548 -4.83776,6.030279 -4.11523,0.363281 0.83001,-1.537331 -1.26178,-6.815633 0.74218,-7.384766 z m -130.703118,0.34961 c 0.09538,2.994391 0.223588,6.055663 -0.07422,9.035156 -1.180999,0.0406 -1.748925,-9.180625 0.07422,-9.035156 z m 57.611329,0 c -0.360922,2.66585 1.129296,7.321911 -0.544922,9.035156 0.460429,-2.609839 -0.857026,-7.419566 0.544922,-9.035156 z m 129.550779,0 c -0.31638,2.707973 1.05898,7.25613 -0.54688,9.035156 0.46238,-2.607903 -0.86054,-7.425319 0.54688,-9.035156 z m 15.2168,0 c 0.18111,8.581782 0.68912,17.768701 -0.2461,26.228515 -1.56557,-4.267729 -0.21342,-11.558515 -0.66601,-16.978515 0.71521,-2.465637 -1.36939,-8.448815 0.91211,-9.25 z m 7.58593,9.634765 c 1.60498,3.093951 4.38217,5.380178 6.42578,8.164063 -8.43972,1.79737 -6.49672,-2.654883 -6.42578,-8.164063 z m -15.92187,16.390625 c -0.90081,-3.907957 -3.08786,-8.444058 -3.28125,-11.982422 1.98157,-0.07353 3.92386,-5.110408 3.28125,-1.060546 0,4.347656 0,8.695312 0,13.042968 z M 149.43087,48.366281 c 2.48414,1.759069 0.48966,8.260472 1.00195,11.863281 -2.28187,-0.419959 -0.24459,-4.884976 -1.0039,-6.521484 0.002,-1.77973 -0.003,-3.565381 0.002,-5.341797 z m -58.695307,5.164063 c -1.136645,-0.905579 0.22901,-3.6872 0,0 z m 100.962887,0 c -1.13454,-0.89579 0.22835,-3.682363 0,0 z M 33.061732,51.897531 c 1.789736,2.123464 1.344612,6.350917 0.44336,8.214844 -1.40918,-1.599394 -0.205571,-6.424947 -0.44336,-8.214844 z m 203.144528,0 c 1.77338,2.121696 1.38587,6.354939 0.44336,8.214844 -1.40918,-1.599394 -0.20557,-6.424947 -0.44336,-8.214844 z"
       id="text20"
       inkscape:connector-curvature="0"
       inkscape:export-xdpi="90"
       inkscape:export-ydpi="90"
       transform="matrix(0.70612649,0,0,0.70612649,12.899792,11.407768)" />
    <text
       xml:space="preserve"
       style="font-style:normal;font-variant:normal;font-weight:normal;font-stretch:normal;font-size:31.41331482px;line-height:1.25;font-family:Vevey;-inkscape-font-specification:Vevey;letter-spacing:0px;word-spacing:0px;fill:url(#linearGradient859);fill-opacity:1;stroke:#d800d8;stroke-width:0.37365863;stroke-miterlimit:4;stroke-dasharray:none;stroke-opacity:0.35981338"
       x="21.236603"
       y="56.148335"
       id="text12"
       inkscape:export-xdpi="90"
       inkscape:export-ydpi="90"><tspan
         sodipodi:role="line"
         id="tspan10"
         x="21.236603"
         y="56.148335"
         style="fill:url(#linearGradient859);fill-opacity:1;stroke:#d800d8;stroke-width:0.37365863;stroke-miterlimit:4;stroke-dasharray:none;stroke-opacity:0.3598135">PSYTraining: CARDS</tspan></text>
    <path
       style="opacity:0.5;vector-effect:none;fill:#ffffff;fill-opacity:0.8627451;stroke:#262626;stroke-width:2;stroke-linecap:butt;stroke-linejoin:miter;stroke-miterlimit:4;stroke-dasharray:none;stroke-dashoffset:0;stroke-opacity:0.35981338"
       d="M 72.894531 725.16016 C 63.802259 725.16016 56.482422 732.47999 56.482422 741.57227 L 56.482422 769.10156 C 56.482422 769.92341 56.564175 770.72489 56.679688 771.51367 L 56.482422 771.51367 L 56.482422 1040.8965 L 1881.332 1040.8965 L 1881.332 771.51367 L 184.4082 771.51367 C 184.52372 770.72489 184.60352 769.92341 184.60352 769.10156 L 184.60352 741.57227 C 184.60352 732.47999 177.28368 725.16016 168.19141 725.16016 L 72.894531 725.16016 z "
       transform="matrix(0.26458334,0,0,0.26458334,0,11.249941)"
       id="rect863"
       inkscape:export-xdpi="90"
       inkscape:export-ydpi="90" />
    <text
       xml:space="preserve"
       style="font-style:normal;font-variant:normal;font-weight:normal;font-stretch:normal;font-size:10.58333397px;line-height:1.25;font-family:Vevey;-inkscape-font-specification:Vevey;letter-spacing:0px;word-spacing:0px;fill:#000000;fill-opacity:1;stroke:none;stroke-width:0.26458335;"
       x="18.586582"
       y="213.59221"
       id="text867"
       inkscape:export-xdpi="90"
       inkscape:export-ydpi="90"><tspan
         sodipodi:role="line"
         id="tspan865"
         x="18.586582"
         y="213.59221"
         style="stroke-width:0.26458335;fill:#000000;">DeckArea</tspan></text>
  </g>
</svg>
